# xmcd
#
# Track frame offsets:
#	150
#	16650
#	29249
#	45112
#	54637
#	69150
#	94800
#	106089
#	125737
#	137776
#	157051
#	167101
#	180564
#	198414
#
# Disc length: 2892 seconds
#
# Revision: 1
# Processed by: cddbd v1.4PL0 Copyright (c) Steve Scherf et al.
# Submitted via: audiograbber 1.81.03
#
DISCID=ba0b4a0e
DTITLE=Various Artist - Ruff Stuff
DYEAR=1900
DGENRE=Blues
TTITLE0=Duke Robillard - Let Me Love You
TTITLE1=Bobby Parker - Watch Your Step
TTITLE2=The Tomcats - Come Back Baby
TTITLE3=Big Al Downing - Georgia Slop
TTITLE4=Bill Carter - Na Na Ne Na Nay
TTITLE5=B Willie Smith - Please Please
TTITLE6=The Daylighters - Oh Mom
TTITLE7=Ray Sharpe - Boat Dock
TTITLE8=Lloyd Jones - Shake Your Money Maker
TTITLE9=Katy Webster - No Breadn No Meat
TTITLE10=Papa Lightfood - Wine Woman And Whiskey
TTITLE11=The Dirty Blues Band - Bring It On Home To Me
TTITLE12=L C Robinson - Summerville Blues
TTITLE13=Jimmy Vaughan and Duke Robillard - Cookin'
EXTD=
EXTT0=
EXTT1=
EXTT2=
EXTT3=
EXTT4=
EXTT5=
EXTT6=
EXTT7=
EXTT8=
EXTT9=
EXTT10=
EXTT11=
EXTT12=
EXTT13=
PLAYORDER=
